<mxfile host="app.diagrams.net" modified="2021-01-11T02:32:58.405Z" agent="5.0 (Windows NT 10.0; Win64; x64) AppleWebKit/537.36 (KHTML, like Gecko) Chrome/87.0.4280.142 Safari/537.36" etag="GqBdwR4rUqlW7RAu_wN-" version="14.1.9" type="github">
  <diagram id="KxYDX87fbkqEeL6J-MPL" name="Page-1">
    <mxGraphModel dx="593" dy="611" grid="0" gridSize="10" guides="1" tooltips="1" connect="1" arrows="1" fold="1" page="0" pageScale="1" pageWidth="827" pageHeight="1169" math="0" shadow="0">
      <root>
        <mxCell id="0" />
        <mxCell id="1" parent="0" />
        <mxCell id="JelqPmOerXIzlI4keo5a-9" value="" style="whiteSpace=wrap;html=1;aspect=fixed;strokeColor=#6c8ebf;fillColor=none;" vertex="1" parent="1">
          <mxGeometry x="140" y="250" width="180" height="180" as="geometry" />
        </mxCell>
        <mxCell id="JelqPmOerXIzlI4keo5a-19" value="" style="whiteSpace=wrap;html=1;aspect=fixed;strokeColor=#6c8ebf;fillColor=none;" vertex="1" parent="1">
          <mxGeometry x="440" y="250" width="180" height="180" as="geometry" />
        </mxCell>
        <mxCell id="JelqPmOerXIzlI4keo5a-1" value="" style="endArrow=none;html=1;" edge="1" parent="1">
          <mxGeometry width="50" height="50" relative="1" as="geometry">
            <mxPoint x="150" y="330" as="sourcePoint" />
            <mxPoint x="200" y="280" as="targetPoint" />
          </mxGeometry>
        </mxCell>
        <mxCell id="JelqPmOerXIzlI4keo5a-2" value="" style="endArrow=none;html=1;" edge="1" parent="1">
          <mxGeometry width="50" height="50" relative="1" as="geometry">
            <mxPoint x="270" y="320" as="sourcePoint" />
            <mxPoint x="200" y="280" as="targetPoint" />
          </mxGeometry>
        </mxCell>
        <mxCell id="JelqPmOerXIzlI4keo5a-3" value="" style="endArrow=none;html=1;" edge="1" parent="1">
          <mxGeometry width="50" height="50" relative="1" as="geometry">
            <mxPoint x="270" y="320" as="sourcePoint" />
            <mxPoint x="150" y="330" as="targetPoint" />
          </mxGeometry>
        </mxCell>
        <mxCell id="JelqPmOerXIzlI4keo5a-4" value="" style="endArrow=none;html=1;" edge="1" parent="1">
          <mxGeometry width="50" height="50" relative="1" as="geometry">
            <mxPoint x="240" y="410" as="sourcePoint" />
            <mxPoint x="150" y="330" as="targetPoint" />
          </mxGeometry>
        </mxCell>
        <mxCell id="JelqPmOerXIzlI4keo5a-5" value="" style="endArrow=none;html=1;" edge="1" parent="1">
          <mxGeometry width="50" height="50" relative="1" as="geometry">
            <mxPoint x="290" y="400" as="sourcePoint" />
            <mxPoint x="270" y="320" as="targetPoint" />
          </mxGeometry>
        </mxCell>
        <mxCell id="JelqPmOerXIzlI4keo5a-6" value="" style="endArrow=none;html=1;" edge="1" parent="1">
          <mxGeometry width="50" height="50" relative="1" as="geometry">
            <mxPoint x="290" y="400" as="sourcePoint" />
            <mxPoint x="240" y="410" as="targetPoint" />
          </mxGeometry>
        </mxCell>
        <mxCell id="JelqPmOerXIzlI4keo5a-7" value="" style="endArrow=none;html=1;dashed=1;" edge="1" parent="1">
          <mxGeometry width="50" height="50" relative="1" as="geometry">
            <mxPoint x="80" y="360" as="sourcePoint" />
            <mxPoint x="150" y="330" as="targetPoint" />
          </mxGeometry>
        </mxCell>
        <mxCell id="JelqPmOerXIzlI4keo5a-8" value="" style="endArrow=none;html=1;dashed=1;" edge="1" parent="1">
          <mxGeometry width="50" height="50" relative="1" as="geometry">
            <mxPoint x="80" y="250" as="sourcePoint" />
            <mxPoint x="200" y="280" as="targetPoint" />
          </mxGeometry>
        </mxCell>
        <mxCell id="JelqPmOerXIzlI4keo5a-11" value="" style="endArrow=none;html=1;" edge="1" parent="1">
          <mxGeometry width="50" height="50" relative="1" as="geometry">
            <mxPoint x="450" y="330" as="sourcePoint" />
            <mxPoint x="500" y="280" as="targetPoint" />
          </mxGeometry>
        </mxCell>
        <mxCell id="JelqPmOerXIzlI4keo5a-12" value="" style="endArrow=none;html=1;" edge="1" parent="1">
          <mxGeometry width="50" height="50" relative="1" as="geometry">
            <mxPoint x="570" y="320" as="sourcePoint" />
            <mxPoint x="500" y="280" as="targetPoint" />
          </mxGeometry>
        </mxCell>
        <mxCell id="JelqPmOerXIzlI4keo5a-13" value="" style="endArrow=none;html=1;" edge="1" parent="1">
          <mxGeometry width="50" height="50" relative="1" as="geometry">
            <mxPoint x="570" y="320" as="sourcePoint" />
            <mxPoint x="450" y="330" as="targetPoint" />
          </mxGeometry>
        </mxCell>
        <mxCell id="JelqPmOerXIzlI4keo5a-14" value="" style="endArrow=none;html=1;" edge="1" parent="1">
          <mxGeometry width="50" height="50" relative="1" as="geometry">
            <mxPoint x="540" y="410" as="sourcePoint" />
            <mxPoint x="450" y="330" as="targetPoint" />
          </mxGeometry>
        </mxCell>
        <mxCell id="JelqPmOerXIzlI4keo5a-15" value="" style="endArrow=none;html=1;" edge="1" parent="1">
          <mxGeometry width="50" height="50" relative="1" as="geometry">
            <mxPoint x="590" y="400" as="sourcePoint" />
            <mxPoint x="570" y="320" as="targetPoint" />
          </mxGeometry>
        </mxCell>
        <mxCell id="JelqPmOerXIzlI4keo5a-17" value="" style="endArrow=none;html=1;dashed=1;" edge="1" parent="1">
          <mxGeometry width="50" height="50" relative="1" as="geometry">
            <mxPoint x="380" y="360" as="sourcePoint" />
            <mxPoint x="450" y="330" as="targetPoint" />
          </mxGeometry>
        </mxCell>
        <mxCell id="JelqPmOerXIzlI4keo5a-18" value="" style="endArrow=none;html=1;dashed=1;" edge="1" parent="1">
          <mxGeometry width="50" height="50" relative="1" as="geometry">
            <mxPoint x="380" y="250" as="sourcePoint" />
            <mxPoint x="500" y="280" as="targetPoint" />
          </mxGeometry>
        </mxCell>
        <mxCell id="JelqPmOerXIzlI4keo5a-21" value="e&#39; = e - 1 = 5&lt;br&gt;f&#39; = f - 1 = 2&lt;br&gt;v&#39; = v = 5" style="text;html=1;align=left;verticalAlign=middle;resizable=0;points=[];autosize=1;fontFamily=Lucida Console;" vertex="1" parent="1">
          <mxGeometry x="440" y="437" width="111" height="46" as="geometry" />
        </mxCell>
        <mxCell id="JelqPmOerXIzlI4keo5a-22" value="" style="whiteSpace=wrap;html=1;aspect=fixed;strokeColor=#6c8ebf;fillColor=none;" vertex="1" parent="1">
          <mxGeometry x="740" y="250" width="180" height="180" as="geometry" />
        </mxCell>
        <mxCell id="JelqPmOerXIzlI4keo5a-23" value="" style="endArrow=none;html=1;" edge="1" parent="1">
          <mxGeometry width="50" height="50" relative="1" as="geometry">
            <mxPoint x="749.9999999999998" y="330" as="sourcePoint" />
            <mxPoint x="799.9999999999998" y="280" as="targetPoint" />
          </mxGeometry>
        </mxCell>
        <mxCell id="JelqPmOerXIzlI4keo5a-24" value="" style="endArrow=none;html=1;" edge="1" parent="1">
          <mxGeometry width="50" height="50" relative="1" as="geometry">
            <mxPoint x="869.9999999999998" y="320" as="sourcePoint" />
            <mxPoint x="799.9999999999998" y="280" as="targetPoint" />
          </mxGeometry>
        </mxCell>
        <mxCell id="JelqPmOerXIzlI4keo5a-25" value="" style="endArrow=none;html=1;" edge="1" parent="1">
          <mxGeometry width="50" height="50" relative="1" as="geometry">
            <mxPoint x="869.9999999999998" y="320" as="sourcePoint" />
            <mxPoint x="749.9999999999998" y="330" as="targetPoint" />
          </mxGeometry>
        </mxCell>
        <mxCell id="JelqPmOerXIzlI4keo5a-26" value="" style="endArrow=none;html=1;" edge="1" parent="1">
          <mxGeometry width="50" height="50" relative="1" as="geometry">
            <mxPoint x="839.9999999999998" y="410" as="sourcePoint" />
            <mxPoint x="749.9999999999998" y="330" as="targetPoint" />
          </mxGeometry>
        </mxCell>
        <mxCell id="JelqPmOerXIzlI4keo5a-28" value="" style="endArrow=none;html=1;dashed=1;" edge="1" parent="1">
          <mxGeometry width="50" height="50" relative="1" as="geometry">
            <mxPoint x="680.0000000000002" y="360" as="sourcePoint" />
            <mxPoint x="749.9999999999998" y="330" as="targetPoint" />
          </mxGeometry>
        </mxCell>
        <mxCell id="JelqPmOerXIzlI4keo5a-29" value="" style="endArrow=none;html=1;dashed=1;" edge="1" parent="1">
          <mxGeometry width="50" height="50" relative="1" as="geometry">
            <mxPoint x="680.0000000000002" y="250" as="sourcePoint" />
            <mxPoint x="799.9999999999998" y="280" as="targetPoint" />
          </mxGeometry>
        </mxCell>
        <mxCell id="JelqPmOerXIzlI4keo5a-30" value="e&#39; = e - 1 = 4&lt;br&gt;f&#39; = f = 2&lt;br&gt;v&#39; = v - 1 = 4" style="text;html=1;align=left;verticalAlign=middle;resizable=0;points=[];autosize=1;fontFamily=Lucida Console;" vertex="1" parent="1">
          <mxGeometry x="740" y="437" width="111" height="46" as="geometry" />
        </mxCell>
        <mxCell id="JelqPmOerXIzlI4keo5a-31" value="" style="whiteSpace=wrap;html=1;aspect=fixed;strokeColor=#6c8ebf;fillColor=none;" vertex="1" parent="1">
          <mxGeometry x="141" y="560" width="180" height="180" as="geometry" />
        </mxCell>
        <mxCell id="JelqPmOerXIzlI4keo5a-32" value="" style="endArrow=none;html=1;" edge="1" parent="1">
          <mxGeometry width="50" height="50" relative="1" as="geometry">
            <mxPoint x="150.99999999999977" y="640" as="sourcePoint" />
            <mxPoint x="200.99999999999977" y="590" as="targetPoint" />
          </mxGeometry>
        </mxCell>
        <mxCell id="JelqPmOerXIzlI4keo5a-33" value="" style="endArrow=none;html=1;" edge="1" parent="1">
          <mxGeometry width="50" height="50" relative="1" as="geometry">
            <mxPoint x="270.9999999999998" y="630" as="sourcePoint" />
            <mxPoint x="200.99999999999977" y="590" as="targetPoint" />
          </mxGeometry>
        </mxCell>
        <mxCell id="JelqPmOerXIzlI4keo5a-34" value="" style="endArrow=none;html=1;" edge="1" parent="1">
          <mxGeometry width="50" height="50" relative="1" as="geometry">
            <mxPoint x="270.9999999999998" y="630" as="sourcePoint" />
            <mxPoint x="150.99999999999977" y="640" as="targetPoint" />
          </mxGeometry>
        </mxCell>
        <mxCell id="JelqPmOerXIzlI4keo5a-36" value="" style="endArrow=none;html=1;dashed=1;" edge="1" parent="1">
          <mxGeometry width="50" height="50" relative="1" as="geometry">
            <mxPoint x="81.00000000000023" y="670" as="sourcePoint" />
            <mxPoint x="150.99999999999977" y="640" as="targetPoint" />
          </mxGeometry>
        </mxCell>
        <mxCell id="JelqPmOerXIzlI4keo5a-37" value="" style="endArrow=none;html=1;dashed=1;" edge="1" parent="1">
          <mxGeometry width="50" height="50" relative="1" as="geometry">
            <mxPoint x="81.00000000000023" y="560" as="sourcePoint" />
            <mxPoint x="200.99999999999977" y="590" as="targetPoint" />
          </mxGeometry>
        </mxCell>
        <mxCell id="JelqPmOerXIzlI4keo5a-38" value="e&#39; = e - 1 = 3&lt;br&gt;f&#39; = f = 2&lt;br&gt;v&#39; = v - 1 = 3" style="text;html=1;align=left;verticalAlign=middle;resizable=0;points=[];autosize=1;fontFamily=Lucida Console;" vertex="1" parent="1">
          <mxGeometry x="141" y="747" width="111" height="46" as="geometry" />
        </mxCell>
        <mxCell id="JelqPmOerXIzlI4keo5a-39" value="" style="whiteSpace=wrap;html=1;aspect=fixed;strokeColor=#6c8ebf;fillColor=none;" vertex="1" parent="1">
          <mxGeometry x="440" y="560" width="180" height="180" as="geometry" />
        </mxCell>
        <mxCell id="JelqPmOerXIzlI4keo5a-40" value="" style="endArrow=none;html=1;" edge="1" parent="1">
          <mxGeometry width="50" height="50" relative="1" as="geometry">
            <mxPoint x="449.9999999999998" y="640.0000000000001" as="sourcePoint" />
            <mxPoint x="499.9999999999998" y="590" as="targetPoint" />
          </mxGeometry>
        </mxCell>
        <mxCell id="JelqPmOerXIzlI4keo5a-41" value="" style="endArrow=none;html=1;" edge="1" parent="1">
          <mxGeometry width="50" height="50" relative="1" as="geometry">
            <mxPoint x="569.9999999999998" y="630" as="sourcePoint" />
            <mxPoint x="499.9999999999998" y="590" as="targetPoint" />
          </mxGeometry>
        </mxCell>
        <mxCell id="JelqPmOerXIzlI4keo5a-43" value="" style="endArrow=none;html=1;dashed=1;" edge="1" parent="1">
          <mxGeometry width="50" height="50" relative="1" as="geometry">
            <mxPoint x="380.00000000000045" y="670.0000000000001" as="sourcePoint" />
            <mxPoint x="449.9999999999998" y="640.0000000000001" as="targetPoint" />
          </mxGeometry>
        </mxCell>
        <mxCell id="JelqPmOerXIzlI4keo5a-44" value="" style="endArrow=none;html=1;dashed=1;" edge="1" parent="1">
          <mxGeometry width="50" height="50" relative="1" as="geometry">
            <mxPoint x="380.00000000000045" y="560" as="sourcePoint" />
            <mxPoint x="499.9999999999998" y="590" as="targetPoint" />
          </mxGeometry>
        </mxCell>
        <mxCell id="JelqPmOerXIzlI4keo5a-45" value="e&#39; = e - 1 = 2&lt;br&gt;f&#39; = f - 1 = 1&lt;br&gt;v&#39; = v = 3" style="text;html=1;align=left;verticalAlign=middle;resizable=0;points=[];autosize=1;fontFamily=Lucida Console;" vertex="1" parent="1">
          <mxGeometry x="440" y="747" width="111" height="46" as="geometry" />
        </mxCell>
        <mxCell id="JelqPmOerXIzlI4keo5a-46" value="" style="whiteSpace=wrap;html=1;aspect=fixed;strokeColor=#6c8ebf;fillColor=none;" vertex="1" parent="1">
          <mxGeometry x="740" y="560" width="180" height="180" as="geometry" />
        </mxCell>
        <mxCell id="JelqPmOerXIzlI4keo5a-47" value="" style="endArrow=none;html=1;" edge="1" parent="1">
          <mxGeometry width="50" height="50" relative="1" as="geometry">
            <mxPoint x="749.9999999999998" y="640.0000000000001" as="sourcePoint" />
            <mxPoint x="799.9999999999998" y="590" as="targetPoint" />
          </mxGeometry>
        </mxCell>
        <mxCell id="JelqPmOerXIzlI4keo5a-49" value="" style="endArrow=none;html=1;dashed=1;" edge="1" parent="1">
          <mxGeometry width="50" height="50" relative="1" as="geometry">
            <mxPoint x="680.0000000000005" y="670.0000000000001" as="sourcePoint" />
            <mxPoint x="749.9999999999998" y="640.0000000000001" as="targetPoint" />
          </mxGeometry>
        </mxCell>
        <mxCell id="JelqPmOerXIzlI4keo5a-50" value="" style="endArrow=none;html=1;dashed=1;" edge="1" parent="1">
          <mxGeometry width="50" height="50" relative="1" as="geometry">
            <mxPoint x="680.0000000000005" y="560" as="sourcePoint" />
            <mxPoint x="799.9999999999998" y="590" as="targetPoint" />
          </mxGeometry>
        </mxCell>
        <mxCell id="JelqPmOerXIzlI4keo5a-51" value="e&#39; = e - 1 = 1&lt;br&gt;f&#39; = f = 1&lt;br&gt;v&#39; = v - 1= 2" style="text;html=1;align=left;verticalAlign=middle;resizable=0;points=[];autosize=1;fontFamily=Lucida Console;" vertex="1" parent="1">
          <mxGeometry x="740" y="747" width="111" height="46" as="geometry" />
        </mxCell>
        <mxCell id="JelqPmOerXIzlI4keo5a-52" value="初始状态" style="text;html=1;align=left;verticalAlign=middle;resizable=0;points=[];autosize=1;fontFamily=Courier New;" vertex="1" parent="1">
          <mxGeometry x="140" y="437" width="58" height="18" as="geometry" />
        </mxCell>
      </root>
    </mxGraphModel>
  </diagram>
</mxfile>
